<mxfile host="Electron" modified="2024-05-17T16:34:13.617Z" agent="Mozilla/5.0 (Windows NT 10.0; Win64; x64) AppleWebKit/537.36 (KHTML, like Gecko) draw.io/21.6.8 Chrome/114.0.5735.289 Electron/25.5.0 Safari/537.36" etag="E_nSMUICu62O2mRMpAkm" version="21.6.8" type="device">
  <diagram name="Page-1" id="iT0Idw_XRE-KlT5X2-W5">
    <mxGraphModel dx="2711" dy="1102" grid="1" gridSize="10" guides="1" tooltips="1" connect="1" arrows="1" fold="1" page="1" pageScale="1" pageWidth="827" pageHeight="1169" math="0" shadow="0">
      <root>
        <mxCell id="0" />
        <mxCell id="1" parent="0" />
        <mxCell id="1iSN-tlwbd-F4aJp31QX-1" value="0" style="ellipse;whiteSpace=wrap;html=1;aspect=fixed;" parent="1" vertex="1">
          <mxGeometry x="70" y="505" width="80" height="80" as="geometry" />
        </mxCell>
        <mxCell id="1iSN-tlwbd-F4aJp31QX-11" value="4 (Idenfitier)" style="ellipse;shape=doubleEllipse;whiteSpace=wrap;html=1;aspect=fixed;" parent="1" vertex="1">
          <mxGeometry x="410" y="330" width="80" height="80" as="geometry" />
        </mxCell>
        <mxCell id="1iSN-tlwbd-F4aJp31QX-12" value="Letter" style="endArrow=classic;html=1;rounded=0;exitX=1;exitY=0;exitDx=0;exitDy=0;entryX=0;entryY=1;entryDx=0;entryDy=0;" parent="1" source="1iSN-tlwbd-F4aJp31QX-1" target="1iSN-tlwbd-F4aJp31QX-11" edge="1">
          <mxGeometry width="50" height="50" relative="1" as="geometry">
            <mxPoint x="100.00427124746486" y="476.7157287525349" as="sourcePoint" />
            <mxPoint x="193.44" y="480" as="targetPoint" />
          </mxGeometry>
        </mxCell>
        <mxCell id="1iSN-tlwbd-F4aJp31QX-13" value="Letter, Digit, Underscore" style="curved=1;endArrow=classic;html=1;rounded=0;exitX=0;exitY=0.5;exitDx=0;exitDy=0;entryX=0;entryY=0;entryDx=0;entryDy=0;" parent="1" source="1iSN-tlwbd-F4aJp31QX-11" target="1iSN-tlwbd-F4aJp31QX-11" edge="1">
          <mxGeometry x="0.5059" y="1" width="50" height="50" relative="1" as="geometry">
            <mxPoint x="123.44" y="430" as="sourcePoint" />
            <mxPoint x="173.44" y="380" as="targetPoint" />
            <Array as="points">
              <mxPoint x="370" y="340" />
            </Array>
            <mxPoint as="offset" />
          </mxGeometry>
        </mxCell>
        <mxCell id="1iSN-tlwbd-F4aJp31QX-22" value="" style="edgeStyle=orthogonalEdgeStyle;rounded=0;orthogonalLoop=1;jettySize=auto;html=1;" parent="1" source="1iSN-tlwbd-F4aJp31QX-14" target="1iSN-tlwbd-F4aJp31QX-18" edge="1">
          <mxGeometry relative="1" as="geometry" />
        </mxCell>
        <mxCell id="1iSN-tlwbd-F4aJp31QX-14" value="1 (Integer Literal)" style="ellipse;shape=doubleEllipse;whiteSpace=wrap;html=1;aspect=fixed;" parent="1" vertex="1">
          <mxGeometry x="220" y="505" width="80" height="80" as="geometry" />
        </mxCell>
        <mxCell id="1iSN-tlwbd-F4aJp31QX-15" value="Digit" style="endArrow=classic;html=1;rounded=0;exitX=1;exitY=0.5;exitDx=0;exitDy=0;entryX=0;entryY=0.5;entryDx=0;entryDy=0;" parent="1" source="1iSN-tlwbd-F4aJp31QX-1" target="1iSN-tlwbd-F4aJp31QX-14" edge="1">
          <mxGeometry width="50" height="50" relative="1" as="geometry">
            <mxPoint x="148" y="527" as="sourcePoint" />
            <mxPoint x="185" y="478" as="targetPoint" />
          </mxGeometry>
        </mxCell>
        <mxCell id="1iSN-tlwbd-F4aJp31QX-17" value="Digit" style="curved=1;endArrow=classic;html=1;rounded=0;exitX=0.5;exitY=0;exitDx=0;exitDy=0;entryX=1;entryY=0;entryDx=0;entryDy=0;elbow=vertical;" parent="1" source="1iSN-tlwbd-F4aJp31QX-14" target="1iSN-tlwbd-F4aJp31QX-14" edge="1">
          <mxGeometry x="0.5511" y="-4" width="50" height="50" relative="1" as="geometry">
            <mxPoint x="280" y="500" as="sourcePoint" />
            <mxPoint x="330" y="450" as="targetPoint" />
            <Array as="points">
              <mxPoint x="300" y="460" />
            </Array>
            <mxPoint as="offset" />
          </mxGeometry>
        </mxCell>
        <mxCell id="1iSN-tlwbd-F4aJp31QX-18" value="2" style="ellipse;whiteSpace=wrap;html=1;aspect=fixed;" parent="1" vertex="1">
          <mxGeometry x="370" y="505" width="80" height="80" as="geometry" />
        </mxCell>
        <mxCell id="1iSN-tlwbd-F4aJp31QX-19" value="3 (Float Literal)" style="ellipse;shape=doubleEllipse;whiteSpace=wrap;html=1;aspect=fixed;" parent="1" vertex="1">
          <mxGeometry x="490" y="505" width="80" height="80" as="geometry" />
        </mxCell>
        <mxCell id="1iSN-tlwbd-F4aJp31QX-20" value="Digit" style="curved=1;endArrow=classic;html=1;rounded=0;exitX=0;exitY=0;exitDx=0;exitDy=0;entryX=0.5;entryY=0;entryDx=0;entryDy=0;" parent="1" source="1iSN-tlwbd-F4aJp31QX-19" target="1iSN-tlwbd-F4aJp31QX-19" edge="1">
          <mxGeometry width="50" height="50" relative="1" as="geometry">
            <mxPoint x="270" y="515" as="sourcePoint" />
            <mxPoint x="298" y="527" as="targetPoint" />
            <Array as="points">
              <mxPoint x="490" y="470" />
            </Array>
          </mxGeometry>
        </mxCell>
        <mxCell id="1iSN-tlwbd-F4aJp31QX-21" value="Fullstop" style="endArrow=classic;html=1;rounded=0;entryX=0;entryY=0.5;entryDx=0;entryDy=0;" parent="1" target="1iSN-tlwbd-F4aJp31QX-18" edge="1">
          <mxGeometry width="50" height="50" relative="1" as="geometry">
            <mxPoint x="300" y="545" as="sourcePoint" />
            <mxPoint x="370" y="544.66" as="targetPoint" />
          </mxGeometry>
        </mxCell>
        <mxCell id="1iSN-tlwbd-F4aJp31QX-23" value="Digit" style="endArrow=classic;html=1;rounded=0;exitX=1;exitY=0.5;exitDx=0;exitDy=0;entryX=0;entryY=0.5;entryDx=0;entryDy=0;" parent="1" source="1iSN-tlwbd-F4aJp31QX-18" target="1iSN-tlwbd-F4aJp31QX-19" edge="1">
          <mxGeometry width="50" height="50" relative="1" as="geometry">
            <mxPoint x="160" y="555" as="sourcePoint" />
            <mxPoint x="230" y="555" as="targetPoint" />
          </mxGeometry>
        </mxCell>
        <mxCell id="1iSN-tlwbd-F4aJp31QX-24" value="5 (AdditiveOp)" style="ellipse;shape=doubleEllipse;whiteSpace=wrap;html=1;aspect=fixed;" parent="1" vertex="1">
          <mxGeometry x="140" y="660" width="80" height="80" as="geometry" />
        </mxCell>
        <mxCell id="1iSN-tlwbd-F4aJp31QX-25" value="-" style="endArrow=classic;html=1;rounded=0;exitX=0.5;exitY=1;exitDx=0;exitDy=0;entryX=0.5;entryY=0;entryDx=0;entryDy=0;" parent="1" source="1iSN-tlwbd-F4aJp31QX-1" target="1iSN-tlwbd-F4aJp31QX-65" edge="1">
          <mxGeometry x="0.0027" width="50" height="50" relative="1" as="geometry">
            <mxPoint x="160" y="555" as="sourcePoint" />
            <mxPoint x="230" y="555" as="targetPoint" />
            <mxPoint as="offset" />
          </mxGeometry>
        </mxCell>
        <mxCell id="1iSN-tlwbd-F4aJp31QX-26" value="6 (BinaryOp)" style="ellipse;shape=doubleEllipse;whiteSpace=wrap;html=1;aspect=fixed;" parent="1" vertex="1">
          <mxGeometry x="-50" y="740" width="80" height="80" as="geometry" />
        </mxCell>
        <mxCell id="1iSN-tlwbd-F4aJp31QX-27" value="/" style="endArrow=classic;html=1;rounded=0;exitX=0.5;exitY=1;exitDx=0;exitDy=0;entryX=0.5;entryY=0;entryDx=0;entryDy=0;" parent="1" source="1iSN-tlwbd-F4aJp31QX-1" target="1iSN-tlwbd-F4aJp31QX-26" edge="1">
          <mxGeometry x="0.0075" width="50" height="50" relative="1" as="geometry">
            <mxPoint x="120" y="595" as="sourcePoint" />
            <mxPoint x="185" y="662" as="targetPoint" />
            <mxPoint as="offset" />
          </mxGeometry>
        </mxCell>
        <mxCell id="1iSN-tlwbd-F4aJp31QX-28" value="7 (LineComment)" style="ellipse;shape=doubleEllipse;whiteSpace=wrap;html=1;aspect=fixed;" parent="1" vertex="1">
          <mxGeometry x="-100" y="860" width="80" height="80" as="geometry" />
        </mxCell>
        <mxCell id="1iSN-tlwbd-F4aJp31QX-29" value="/" style="endArrow=classic;html=1;rounded=0;exitX=0.5;exitY=1;exitDx=0;exitDy=0;entryX=0.5;entryY=0;entryDx=0;entryDy=0;" parent="1" source="1iSN-tlwbd-F4aJp31QX-26" target="1iSN-tlwbd-F4aJp31QX-28" edge="1">
          <mxGeometry x="0.0027" width="50" height="50" relative="1" as="geometry">
            <mxPoint x="30" y="675" as="sourcePoint" />
            <mxPoint y="750" as="targetPoint" />
            <mxPoint as="offset" />
          </mxGeometry>
        </mxCell>
        <mxCell id="1iSN-tlwbd-F4aJp31QX-30" value="9 (BinaryOp)" style="ellipse;shape=doubleEllipse;whiteSpace=wrap;html=1;aspect=fixed;" parent="1" vertex="1">
          <mxGeometry x="-70" y="650" width="80" height="80" as="geometry" />
        </mxCell>
        <mxCell id="1iSN-tlwbd-F4aJp31QX-31" value="*" style="endArrow=classic;html=1;rounded=0;exitX=0.5;exitY=1;exitDx=0;exitDy=0;entryX=0.5;entryY=0;entryDx=0;entryDy=0;" parent="1" source="1iSN-tlwbd-F4aJp31QX-1" target="1iSN-tlwbd-F4aJp31QX-30" edge="1">
          <mxGeometry x="0.0075" width="50" height="50" relative="1" as="geometry">
            <mxPoint x="120" y="595" as="sourcePoint" />
            <mxPoint x="90" y="670" as="targetPoint" />
            <mxPoint as="offset" />
          </mxGeometry>
        </mxCell>
        <mxCell id="1iSN-tlwbd-F4aJp31QX-32" value="8 (OpenBlock&lt;div&gt;Comment)&lt;/div&gt;" style="ellipse;shape=doubleEllipse;whiteSpace=wrap;html=1;aspect=fixed;" parent="1" vertex="1">
          <mxGeometry x="10" y="860" width="80" height="80" as="geometry" />
        </mxCell>
        <mxCell id="1iSN-tlwbd-F4aJp31QX-33" value="*" style="endArrow=classic;html=1;rounded=0;exitX=0.5;exitY=1;exitDx=0;exitDy=0;entryX=0.5;entryY=0;entryDx=0;entryDy=0;" parent="1" source="1iSN-tlwbd-F4aJp31QX-26" target="1iSN-tlwbd-F4aJp31QX-32" edge="1">
          <mxGeometry x="0.0027" width="50" height="50" relative="1" as="geometry">
            <mxPoint y="830" as="sourcePoint" />
            <mxPoint y="870" as="targetPoint" />
            <mxPoint as="offset" />
          </mxGeometry>
        </mxCell>
        <mxCell id="1iSN-tlwbd-F4aJp31QX-34" value="10 (CloseBlock&lt;div&gt;Comment)&lt;/div&gt;" style="ellipse;shape=doubleEllipse;whiteSpace=wrap;html=1;aspect=fixed;" parent="1" vertex="1">
          <mxGeometry x="-200" y="670" width="80" height="80" as="geometry" />
        </mxCell>
        <mxCell id="1iSN-tlwbd-F4aJp31QX-35" value="/" style="endArrow=classic;html=1;rounded=0;exitX=0;exitY=0.5;exitDx=0;exitDy=0;entryX=1;entryY=0.5;entryDx=0;entryDy=0;" parent="1" source="1iSN-tlwbd-F4aJp31QX-30" target="1iSN-tlwbd-F4aJp31QX-34" edge="1">
          <mxGeometry x="0.0027" width="50" height="50" relative="1" as="geometry">
            <mxPoint x="90" y="750" as="sourcePoint" />
            <mxPoint x="40" y="790" as="targetPoint" />
            <mxPoint as="offset" />
          </mxGeometry>
        </mxCell>
        <mxCell id="1iSN-tlwbd-F4aJp31QX-36" value="11 (BinaryOp)" style="ellipse;shape=doubleEllipse;whiteSpace=wrap;html=1;aspect=fixed;" parent="1" vertex="1">
          <mxGeometry x="-100" y="470" width="80" height="80" as="geometry" />
        </mxCell>
        <mxCell id="1iSN-tlwbd-F4aJp31QX-37" value="&amp;lt;, &amp;gt;" style="endArrow=classic;html=1;rounded=0;exitX=0;exitY=0.5;exitDx=0;exitDy=0;entryX=1;entryY=0.5;entryDx=0;entryDy=0;" parent="1" source="1iSN-tlwbd-F4aJp31QX-1" target="1iSN-tlwbd-F4aJp31QX-36" edge="1">
          <mxGeometry x="0.0075" width="50" height="50" relative="1" as="geometry">
            <mxPoint x="110" y="500" as="sourcePoint" />
            <mxPoint x="-30" y="565" as="targetPoint" />
            <mxPoint as="offset" />
          </mxGeometry>
        </mxCell>
        <mxCell id="1iSN-tlwbd-F4aJp31QX-38" value="14 (BinaryOp)" style="ellipse;shape=doubleEllipse;whiteSpace=wrap;html=1;aspect=fixed;" parent="1" vertex="1">
          <mxGeometry x="-260" y="470" width="80" height="80" as="geometry" />
        </mxCell>
        <mxCell id="1iSN-tlwbd-F4aJp31QX-39" value="=" style="endArrow=classic;html=1;rounded=0;exitX=0;exitY=0.5;exitDx=0;exitDy=0;entryX=1;entryY=0.5;entryDx=0;entryDy=0;" parent="1" source="1iSN-tlwbd-F4aJp31QX-36" target="1iSN-tlwbd-F4aJp31QX-38" edge="1">
          <mxGeometry x="0.0075" width="50" height="50" relative="1" as="geometry">
            <mxPoint x="80" y="555" as="sourcePoint" />
            <mxPoint x="-10" y="520" as="targetPoint" />
            <mxPoint as="offset" />
          </mxGeometry>
        </mxCell>
        <mxCell id="1iSN-tlwbd-F4aJp31QX-40" value="12 (Equals)" style="ellipse;shape=doubleEllipse;whiteSpace=wrap;html=1;aspect=fixed;" parent="1" vertex="1">
          <mxGeometry x="-100" y="560" width="80" height="80" as="geometry" />
        </mxCell>
        <mxCell id="1iSN-tlwbd-F4aJp31QX-41" value="=" style="endArrow=classic;html=1;rounded=0;exitX=0;exitY=1;exitDx=0;exitDy=0;entryX=0.998;entryY=0.451;entryDx=0;entryDy=0;entryPerimeter=0;" parent="1" source="1iSN-tlwbd-F4aJp31QX-1" target="1iSN-tlwbd-F4aJp31QX-40" edge="1">
          <mxGeometry x="0.0075" width="50" height="50" relative="1" as="geometry">
            <mxPoint x="80" y="555" as="sourcePoint" />
            <mxPoint x="-10" y="520" as="targetPoint" />
            <mxPoint as="offset" />
          </mxGeometry>
        </mxCell>
        <mxCell id="1iSN-tlwbd-F4aJp31QX-42" value="=" style="endArrow=classic;html=1;rounded=0;exitX=0;exitY=0.5;exitDx=0;exitDy=0;entryX=1;entryY=1;entryDx=0;entryDy=0;" parent="1" source="1iSN-tlwbd-F4aJp31QX-40" target="1iSN-tlwbd-F4aJp31QX-38" edge="1">
          <mxGeometry x="0.0075" width="50" height="50" relative="1" as="geometry">
            <mxPoint x="92" y="583" as="sourcePoint" />
            <mxPoint x="-10" y="606" as="targetPoint" />
            <mxPoint as="offset" />
          </mxGeometry>
        </mxCell>
        <mxCell id="1iSN-tlwbd-F4aJp31QX-43" value="13" style="ellipse;whiteSpace=wrap;html=1;aspect=fixed;" parent="1" vertex="1">
          <mxGeometry x="-100" y="380" width="80" height="80" as="geometry" />
        </mxCell>
        <mxCell id="1iSN-tlwbd-F4aJp31QX-44" value="!" style="endArrow=classic;html=1;rounded=0;entryX=0.996;entryY=0.59;entryDx=0;entryDy=0;entryPerimeter=0;" parent="1" source="1iSN-tlwbd-F4aJp31QX-1" target="1iSN-tlwbd-F4aJp31QX-43" edge="1">
          <mxGeometry x="0.0075" width="50" height="50" relative="1" as="geometry">
            <mxPoint x="80" y="555" as="sourcePoint" />
            <mxPoint x="-10" y="520" as="targetPoint" />
            <mxPoint as="offset" />
          </mxGeometry>
        </mxCell>
        <mxCell id="1iSN-tlwbd-F4aJp31QX-45" value="=" style="endArrow=classic;html=1;rounded=0;exitX=0;exitY=0.5;exitDx=0;exitDy=0;entryX=1;entryY=0;entryDx=0;entryDy=0;" parent="1" source="1iSN-tlwbd-F4aJp31QX-43" target="1iSN-tlwbd-F4aJp31QX-38" edge="1">
          <mxGeometry x="0.0075" width="50" height="50" relative="1" as="geometry">
            <mxPoint x="-90" y="520" as="sourcePoint" />
            <mxPoint x="-170" y="520" as="targetPoint" />
            <mxPoint as="offset" />
          </mxGeometry>
        </mxCell>
        <mxCell id="1iSN-tlwbd-F4aJp31QX-47" value="15 (Comma)" style="ellipse;shape=doubleEllipse;whiteSpace=wrap;html=1;aspect=fixed;" parent="1" vertex="1">
          <mxGeometry x="250" y="610" width="80" height="80" as="geometry" />
        </mxCell>
        <mxCell id="1iSN-tlwbd-F4aJp31QX-48" value="," style="endArrow=classic;html=1;rounded=0;exitX=1;exitY=1;exitDx=0;exitDy=0;entryX=0;entryY=0;entryDx=0;entryDy=0;" parent="1" source="1iSN-tlwbd-F4aJp31QX-1" target="1iSN-tlwbd-F4aJp31QX-47" edge="1">
          <mxGeometry x="0.0056" width="50" height="50" relative="1" as="geometry">
            <mxPoint x="120" y="595" as="sourcePoint" />
            <mxPoint x="172" y="672" as="targetPoint" />
            <mxPoint as="offset" />
          </mxGeometry>
        </mxCell>
        <mxCell id="1iSN-tlwbd-F4aJp31QX-49" value="16 (Colon)" style="ellipse;shape=doubleEllipse;whiteSpace=wrap;html=1;aspect=fixed;" parent="1" vertex="1">
          <mxGeometry x="260" y="720" width="80" height="80" as="geometry" />
        </mxCell>
        <mxCell id="1iSN-tlwbd-F4aJp31QX-50" value="17 (Semicolon)" style="ellipse;shape=doubleEllipse;whiteSpace=wrap;html=1;aspect=fixed;" parent="1" vertex="1">
          <mxGeometry x="350" y="600" width="80" height="80" as="geometry" />
        </mxCell>
        <mxCell id="1iSN-tlwbd-F4aJp31QX-51" value=":" style="endArrow=classic;html=1;rounded=0;exitX=1;exitY=1;exitDx=0;exitDy=0;" parent="1" source="1iSN-tlwbd-F4aJp31QX-1" target="1iSN-tlwbd-F4aJp31QX-49" edge="1">
          <mxGeometry x="0.0056" width="50" height="50" relative="1" as="geometry">
            <mxPoint x="148" y="583" as="sourcePoint" />
            <mxPoint x="272" y="632" as="targetPoint" />
            <mxPoint as="offset" />
          </mxGeometry>
        </mxCell>
        <mxCell id="1iSN-tlwbd-F4aJp31QX-52" value=";" style="endArrow=classic;html=1;rounded=0;exitX=1;exitY=1;exitDx=0;exitDy=0;entryX=0;entryY=0;entryDx=0;entryDy=0;" parent="1" source="1iSN-tlwbd-F4aJp31QX-1" target="1iSN-tlwbd-F4aJp31QX-50" edge="1">
          <mxGeometry x="0.0056" width="50" height="50" relative="1" as="geometry">
            <mxPoint x="148" y="583" as="sourcePoint" />
            <mxPoint x="360" y="610" as="targetPoint" />
            <mxPoint as="offset" />
          </mxGeometry>
        </mxCell>
        <mxCell id="1iSN-tlwbd-F4aJp31QX-53" value="18 (OpenParen)" style="ellipse;shape=doubleEllipse;whiteSpace=wrap;html=1;aspect=fixed;" parent="1" vertex="1">
          <mxGeometry x="-183.44" y="210" width="80" height="80" as="geometry" />
        </mxCell>
        <mxCell id="1iSN-tlwbd-F4aJp31QX-54" value="19 (CloseParen)" style="ellipse;shape=doubleEllipse;whiteSpace=wrap;html=1;aspect=fixed;" parent="1" vertex="1">
          <mxGeometry x="-60" y="210" width="80" height="80" as="geometry" />
        </mxCell>
        <mxCell id="1iSN-tlwbd-F4aJp31QX-55" value="(" style="endArrow=classic;html=1;rounded=0;entryX=0.5;entryY=1;entryDx=0;entryDy=0;exitX=0.5;exitY=0;exitDx=0;exitDy=0;" parent="1" source="1iSN-tlwbd-F4aJp31QX-1" target="1iSN-tlwbd-F4aJp31QX-53" edge="1">
          <mxGeometry x="0.0075" width="50" height="50" relative="1" as="geometry">
            <mxPoint x="90" y="528" as="sourcePoint" />
            <mxPoint x="-10" y="437" as="targetPoint" />
            <mxPoint as="offset" />
          </mxGeometry>
        </mxCell>
        <mxCell id="1iSN-tlwbd-F4aJp31QX-56" value=")" style="endArrow=classic;html=1;rounded=0;exitX=0.5;exitY=0;exitDx=0;exitDy=0;" parent="1" source="1iSN-tlwbd-F4aJp31QX-1" target="1iSN-tlwbd-F4aJp31QX-54" edge="1">
          <mxGeometry x="0.0075" width="50" height="50" relative="1" as="geometry">
            <mxPoint x="120" y="515" as="sourcePoint" />
            <mxPoint x="-10" y="260" as="targetPoint" />
            <mxPoint as="offset" />
          </mxGeometry>
        </mxCell>
        <mxCell id="1iSN-tlwbd-F4aJp31QX-57" value="20 (OpenSquare)" style="ellipse;shape=doubleEllipse;whiteSpace=wrap;html=1;aspect=fixed;" parent="1" vertex="1">
          <mxGeometry x="30" y="210" width="80" height="80" as="geometry" />
        </mxCell>
        <mxCell id="1iSN-tlwbd-F4aJp31QX-58" value="21 (CloseSquare)" style="ellipse;shape=doubleEllipse;whiteSpace=wrap;html=1;aspect=fixed;" parent="1" vertex="1">
          <mxGeometry x="153.44" y="210" width="80" height="80" as="geometry" />
        </mxCell>
        <mxCell id="1iSN-tlwbd-F4aJp31QX-59" value="22 (OpenCurly)" style="ellipse;shape=doubleEllipse;whiteSpace=wrap;html=1;aspect=fixed;" parent="1" vertex="1">
          <mxGeometry x="250" y="210" width="80" height="80" as="geometry" />
        </mxCell>
        <mxCell id="1iSN-tlwbd-F4aJp31QX-60" value="23 (CloseCurly)" style="ellipse;shape=doubleEllipse;whiteSpace=wrap;html=1;aspect=fixed;" parent="1" vertex="1">
          <mxGeometry x="373.44" y="210" width="80" height="80" as="geometry" />
        </mxCell>
        <mxCell id="1iSN-tlwbd-F4aJp31QX-61" value="[" style="endArrow=classic;html=1;rounded=0;exitX=0.5;exitY=0;exitDx=0;exitDy=0;entryX=0.5;entryY=1;entryDx=0;entryDy=0;" parent="1" source="1iSN-tlwbd-F4aJp31QX-1" target="1iSN-tlwbd-F4aJp31QX-57" edge="1">
          <mxGeometry x="0.0075" width="50" height="50" relative="1" as="geometry">
            <mxPoint x="120" y="515" as="sourcePoint" />
            <mxPoint x="8" y="296" as="targetPoint" />
            <mxPoint as="offset" />
          </mxGeometry>
        </mxCell>
        <mxCell id="1iSN-tlwbd-F4aJp31QX-62" value="]" style="endArrow=classic;html=1;rounded=0;exitX=0.5;exitY=0;exitDx=0;exitDy=0;entryX=0.5;entryY=1;entryDx=0;entryDy=0;" parent="1" source="1iSN-tlwbd-F4aJp31QX-1" target="1iSN-tlwbd-F4aJp31QX-58" edge="1">
          <mxGeometry x="0.0075" width="50" height="50" relative="1" as="geometry">
            <mxPoint x="120" y="515" as="sourcePoint" />
            <mxPoint x="80" y="300" as="targetPoint" />
            <mxPoint as="offset" />
          </mxGeometry>
        </mxCell>
        <mxCell id="1iSN-tlwbd-F4aJp31QX-63" value="{" style="endArrow=classic;html=1;rounded=0;exitX=0.5;exitY=0;exitDx=0;exitDy=0;entryX=0.5;entryY=1;entryDx=0;entryDy=0;" parent="1" source="1iSN-tlwbd-F4aJp31QX-1" target="1iSN-tlwbd-F4aJp31QX-59" edge="1">
          <mxGeometry x="0.0075" width="50" height="50" relative="1" as="geometry">
            <mxPoint x="120" y="515" as="sourcePoint" />
            <mxPoint x="203" y="300" as="targetPoint" />
            <mxPoint as="offset" />
          </mxGeometry>
        </mxCell>
        <mxCell id="1iSN-tlwbd-F4aJp31QX-64" value="}" style="endArrow=classic;html=1;rounded=0;exitX=0.5;exitY=0;exitDx=0;exitDy=0;entryX=0.5;entryY=1;entryDx=0;entryDy=0;" parent="1" source="1iSN-tlwbd-F4aJp31QX-1" target="1iSN-tlwbd-F4aJp31QX-60" edge="1">
          <mxGeometry x="0.0075" width="50" height="50" relative="1" as="geometry">
            <mxPoint x="120" y="515" as="sourcePoint" />
            <mxPoint x="300" y="300" as="targetPoint" />
            <mxPoint as="offset" />
          </mxGeometry>
        </mxCell>
        <mxCell id="1iSN-tlwbd-F4aJp31QX-65" value="24 (AdditiveOp)" style="ellipse;shape=doubleEllipse;whiteSpace=wrap;html=1;aspect=fixed;" parent="1" vertex="1">
          <mxGeometry x="50" y="670" width="80" height="80" as="geometry" />
        </mxCell>
        <mxCell id="1iSN-tlwbd-F4aJp31QX-66" value="+" style="endArrow=classic;html=1;rounded=0;exitX=0.5;exitY=1;exitDx=0;exitDy=0;entryX=0;entryY=0;entryDx=0;entryDy=0;" parent="1" source="1iSN-tlwbd-F4aJp31QX-1" target="1iSN-tlwbd-F4aJp31QX-24" edge="1">
          <mxGeometry x="0.0027" width="50" height="50" relative="1" as="geometry">
            <mxPoint x="120" y="595" as="sourcePoint" />
            <mxPoint x="100" y="680" as="targetPoint" />
            <mxPoint as="offset" />
          </mxGeometry>
        </mxCell>
        <mxCell id="1iSN-tlwbd-F4aJp31QX-67" value="25 (Arrow)" style="ellipse;shape=doubleEllipse;whiteSpace=wrap;html=1;aspect=fixed;" parent="1" vertex="1">
          <mxGeometry x="100" y="780" width="80" height="80" as="geometry" />
        </mxCell>
        <mxCell id="1iSN-tlwbd-F4aJp31QX-68" value="&amp;gt;" style="endArrow=classic;html=1;rounded=0;exitX=0.5;exitY=1;exitDx=0;exitDy=0;entryX=0;entryY=0;entryDx=0;entryDy=0;" parent="1" source="1iSN-tlwbd-F4aJp31QX-65" target="1iSN-tlwbd-F4aJp31QX-67" edge="1">
          <mxGeometry x="0.0027" width="50" height="50" relative="1" as="geometry">
            <mxPoint x="120" y="595" as="sourcePoint" />
            <mxPoint x="100" y="680" as="targetPoint" />
            <mxPoint as="offset" />
          </mxGeometry>
        </mxCell>
        <mxCell id="jYj6SouXjOBJIpX19fyc-1" value="26 (New Line)" style="ellipse;shape=doubleEllipse;whiteSpace=wrap;html=1;aspect=fixed;" parent="1" vertex="1">
          <mxGeometry x="530" y="380" width="80" height="80" as="geometry" />
        </mxCell>
        <mxCell id="jYj6SouXjOBJIpX19fyc-2" value="New line" style="endArrow=classic;html=1;rounded=0;exitX=1;exitY=0;exitDx=0;exitDy=0;entryX=0;entryY=0.5;entryDx=0;entryDy=0;" parent="1" source="1iSN-tlwbd-F4aJp31QX-1" target="jYj6SouXjOBJIpX19fyc-1" edge="1">
          <mxGeometry width="50" height="50" relative="1" as="geometry">
            <mxPoint x="148" y="527" as="sourcePoint" />
            <mxPoint x="432" y="408" as="targetPoint" />
          </mxGeometry>
        </mxCell>
        <mxCell id="jYj6SouXjOBJIpX19fyc-3" value="27" style="ellipse;whiteSpace=wrap;html=1;aspect=fixed;" parent="1" vertex="1">
          <mxGeometry x="390" y="700" width="80" height="80" as="geometry" />
        </mxCell>
        <mxCell id="OPvQSgSo6OzUrPjsuNxw-1" value="28" style="ellipse;whiteSpace=wrap;html=1;aspect=fixed;" parent="1" vertex="1">
          <mxGeometry x="510" y="700" width="80" height="80" as="geometry" />
        </mxCell>
        <mxCell id="OPvQSgSo6OzUrPjsuNxw-2" value="29" style="ellipse;whiteSpace=wrap;html=1;aspect=fixed;" parent="1" vertex="1">
          <mxGeometry x="620" y="700" width="80" height="80" as="geometry" />
        </mxCell>
        <mxCell id="OPvQSgSo6OzUrPjsuNxw-3" value="31" style="ellipse;whiteSpace=wrap;html=1;aspect=fixed;" parent="1" vertex="1">
          <mxGeometry x="740" y="820" width="80" height="80" as="geometry" />
        </mxCell>
        <mxCell id="OPvQSgSo6OzUrPjsuNxw-4" value="30" style="ellipse;whiteSpace=wrap;html=1;aspect=fixed;" parent="1" vertex="1">
          <mxGeometry x="740" y="700" width="80" height="80" as="geometry" />
        </mxCell>
        <mxCell id="OPvQSgSo6OzUrPjsuNxw-5" value="32" style="ellipse;whiteSpace=wrap;html=1;aspect=fixed;" parent="1" vertex="1">
          <mxGeometry x="620" y="820" width="80" height="80" as="geometry" />
        </mxCell>
        <mxCell id="OPvQSgSo6OzUrPjsuNxw-7" value="#" style="endArrow=classic;html=1;rounded=0;exitX=1;exitY=1;exitDx=0;exitDy=0;entryX=0;entryY=0.5;entryDx=0;entryDy=0;" parent="1" source="1iSN-tlwbd-F4aJp31QX-1" target="jYj6SouXjOBJIpX19fyc-3" edge="1">
          <mxGeometry x="0.0056" width="50" height="50" relative="1" as="geometry">
            <mxPoint x="148" y="583" as="sourcePoint" />
            <mxPoint x="272" y="632" as="targetPoint" />
            <mxPoint as="offset" />
          </mxGeometry>
        </mxCell>
        <mxCell id="OPvQSgSo6OzUrPjsuNxw-8" value="33 (Colour Literal)" style="ellipse;shape=doubleEllipse;whiteSpace=wrap;html=1;aspect=fixed;" parent="1" vertex="1">
          <mxGeometry x="500" y="820" width="80" height="80" as="geometry" />
        </mxCell>
        <mxCell id="OPvQSgSo6OzUrPjsuNxw-10" value="34 (Whitespace)" style="ellipse;shape=doubleEllipse;whiteSpace=wrap;html=1;aspect=fixed;" parent="1" vertex="1">
          <mxGeometry x="590" y="460" width="80" height="80" as="geometry" />
        </mxCell>
        <mxCell id="OPvQSgSo6OzUrPjsuNxw-11" value="Hex" style="endArrow=classic;html=1;rounded=0;exitX=1;exitY=0.5;exitDx=0;exitDy=0;entryX=0;entryY=0.5;entryDx=0;entryDy=0;" parent="1" source="jYj6SouXjOBJIpX19fyc-3" target="OPvQSgSo6OzUrPjsuNxw-1" edge="1">
          <mxGeometry x="0.0056" width="50" height="50" relative="1" as="geometry">
            <mxPoint x="148" y="583" as="sourcePoint" />
            <mxPoint x="400" y="750" as="targetPoint" />
            <mxPoint as="offset" />
          </mxGeometry>
        </mxCell>
        <mxCell id="OPvQSgSo6OzUrPjsuNxw-13" value="Hex" style="endArrow=classic;html=1;rounded=0;exitX=1;exitY=0.5;exitDx=0;exitDy=0;entryX=0;entryY=0.5;entryDx=0;entryDy=0;" parent="1" source="OPvQSgSo6OzUrPjsuNxw-1" target="OPvQSgSo6OzUrPjsuNxw-2" edge="1">
          <mxGeometry x="0.0056" width="50" height="50" relative="1" as="geometry">
            <mxPoint x="480" y="750" as="sourcePoint" />
            <mxPoint x="520" y="750" as="targetPoint" />
            <mxPoint as="offset" />
          </mxGeometry>
        </mxCell>
        <mxCell id="OPvQSgSo6OzUrPjsuNxw-14" value="Hex" style="endArrow=classic;html=1;rounded=0;exitX=1;exitY=0.5;exitDx=0;exitDy=0;entryX=0;entryY=0.5;entryDx=0;entryDy=0;" parent="1" source="OPvQSgSo6OzUrPjsuNxw-2" target="OPvQSgSo6OzUrPjsuNxw-4" edge="1">
          <mxGeometry x="0.0056" width="50" height="50" relative="1" as="geometry">
            <mxPoint x="600" y="750" as="sourcePoint" />
            <mxPoint x="630" y="750" as="targetPoint" />
            <mxPoint as="offset" />
          </mxGeometry>
        </mxCell>
        <mxCell id="OPvQSgSo6OzUrPjsuNxw-15" value="Hex" style="endArrow=classic;html=1;rounded=0;exitX=0.5;exitY=1;exitDx=0;exitDy=0;entryX=0.5;entryY=0;entryDx=0;entryDy=0;" parent="1" source="OPvQSgSo6OzUrPjsuNxw-4" target="OPvQSgSo6OzUrPjsuNxw-3" edge="1">
          <mxGeometry x="0.0056" width="50" height="50" relative="1" as="geometry">
            <mxPoint x="710" y="750" as="sourcePoint" />
            <mxPoint x="750" y="750" as="targetPoint" />
            <mxPoint as="offset" />
          </mxGeometry>
        </mxCell>
        <mxCell id="OPvQSgSo6OzUrPjsuNxw-16" value="Hex" style="endArrow=classic;html=1;rounded=0;exitX=0;exitY=0.5;exitDx=0;exitDy=0;entryX=1;entryY=0.5;entryDx=0;entryDy=0;" parent="1" source="OPvQSgSo6OzUrPjsuNxw-3" target="OPvQSgSo6OzUrPjsuNxw-5" edge="1">
          <mxGeometry x="0.0056" width="50" height="50" relative="1" as="geometry">
            <mxPoint x="790" y="790" as="sourcePoint" />
            <mxPoint x="790" y="830" as="targetPoint" />
            <mxPoint as="offset" />
          </mxGeometry>
        </mxCell>
        <mxCell id="OPvQSgSo6OzUrPjsuNxw-17" value="Hex" style="endArrow=classic;html=1;rounded=0;exitX=0;exitY=0.5;exitDx=0;exitDy=0;entryX=1;entryY=0.5;entryDx=0;entryDy=0;" parent="1" source="OPvQSgSo6OzUrPjsuNxw-5" target="OPvQSgSo6OzUrPjsuNxw-8" edge="1">
          <mxGeometry x="0.0056" width="50" height="50" relative="1" as="geometry">
            <mxPoint x="750" y="870" as="sourcePoint" />
            <mxPoint x="710" y="870" as="targetPoint" />
            <mxPoint as="offset" />
          </mxGeometry>
        </mxCell>
        <mxCell id="OPvQSgSo6OzUrPjsuNxw-18" value="Whitespace" style="endArrow=classic;html=1;rounded=0;exitX=1;exitY=0.5;exitDx=0;exitDy=0;entryX=0;entryY=0.5;entryDx=0;entryDy=0;" parent="1" source="1iSN-tlwbd-F4aJp31QX-1" target="OPvQSgSo6OzUrPjsuNxw-10" edge="1">
          <mxGeometry width="50" height="50" relative="1" as="geometry">
            <mxPoint x="148" y="527" as="sourcePoint" />
            <mxPoint x="540" y="430" as="targetPoint" />
          </mxGeometry>
        </mxCell>
        <mxCell id="OPvQSgSo6OzUrPjsuNxw-19" value="Whitespace" style="curved=1;endArrow=classic;html=1;rounded=0;exitX=0.5;exitY=0;exitDx=0;exitDy=0;entryX=1;entryY=0;entryDx=0;entryDy=0;" parent="1" source="OPvQSgSo6OzUrPjsuNxw-10" target="OPvQSgSo6OzUrPjsuNxw-10" edge="1">
          <mxGeometry width="50" height="50" relative="1" as="geometry">
            <mxPoint x="512" y="527" as="sourcePoint" />
            <mxPoint x="540" y="515" as="targetPoint" />
            <Array as="points">
              <mxPoint x="670" y="420" />
            </Array>
          </mxGeometry>
        </mxCell>
        <mxCell id="GGNNI0FL6-iBr90bBPSi-1" value="35" style="ellipse;whiteSpace=wrap;html=1;aspect=fixed;" parent="1" vertex="1">
          <mxGeometry x="250" y="820" width="80" height="80" as="geometry" />
        </mxCell>
        <mxCell id="GGNNI0FL6-iBr90bBPSi-2" value="36" style="ellipse;whiteSpace=wrap;html=1;aspect=fixed;" parent="1" vertex="1">
          <mxGeometry x="250" y="930" width="80" height="80" as="geometry" />
        </mxCell>
        <mxCell id="GGNNI0FL6-iBr90bBPSi-3" value="37 (Builtin)" style="ellipse;shape=doubleEllipse;whiteSpace=wrap;html=1;aspect=fixed;" parent="1" vertex="1">
          <mxGeometry x="250" y="1040" width="80" height="80" as="geometry" />
        </mxCell>
        <mxCell id="GGNNI0FL6-iBr90bBPSi-4" value="_" style="endArrow=classic;html=1;rounded=0;exitX=1;exitY=1;exitDx=0;exitDy=0;entryX=0.5;entryY=0;entryDx=0;entryDy=0;" parent="1" source="1iSN-tlwbd-F4aJp31QX-1" target="GGNNI0FL6-iBr90bBPSi-1" edge="1">
          <mxGeometry x="0.0056" width="50" height="50" relative="1" as="geometry">
            <mxPoint x="148" y="583" as="sourcePoint" />
            <mxPoint x="284" y="740" as="targetPoint" />
            <mxPoint as="offset" />
          </mxGeometry>
        </mxCell>
        <mxCell id="GGNNI0FL6-iBr90bBPSi-5" value="_" style="endArrow=classic;html=1;rounded=0;exitX=0.5;exitY=1;exitDx=0;exitDy=0;entryX=0.5;entryY=0;entryDx=0;entryDy=0;" parent="1" source="GGNNI0FL6-iBr90bBPSi-1" target="GGNNI0FL6-iBr90bBPSi-2" edge="1">
          <mxGeometry x="0.0056" width="50" height="50" relative="1" as="geometry">
            <mxPoint x="148" y="583" as="sourcePoint" />
            <mxPoint x="300" y="830" as="targetPoint" />
            <mxPoint as="offset" />
          </mxGeometry>
        </mxCell>
        <mxCell id="GGNNI0FL6-iBr90bBPSi-6" value="_, Letter" style="endArrow=classic;html=1;rounded=0;exitX=0.5;exitY=1;exitDx=0;exitDy=0;entryX=0.5;entryY=0;entryDx=0;entryDy=0;" parent="1" source="GGNNI0FL6-iBr90bBPSi-2" target="GGNNI0FL6-iBr90bBPSi-3" edge="1">
          <mxGeometry x="0.0056" width="50" height="50" relative="1" as="geometry">
            <mxPoint x="289.66" y="1010" as="sourcePoint" />
            <mxPoint x="310" y="1030" as="targetPoint" />
            <mxPoint as="offset" />
          </mxGeometry>
        </mxCell>
        <mxCell id="GGNNI0FL6-iBr90bBPSi-7" value="_, Letter" style="curved=1;endArrow=classic;html=1;rounded=0;exitX=1;exitY=0;exitDx=0;exitDy=0;entryX=1;entryY=0.5;entryDx=0;entryDy=0;" parent="1" source="GGNNI0FL6-iBr90bBPSi-3" target="GGNNI0FL6-iBr90bBPSi-3" edge="1">
          <mxGeometry width="50" height="50" relative="1" as="geometry">
            <mxPoint x="320" y="1080" as="sourcePoint" />
            <mxPoint x="348" y="1092" as="targetPoint" />
            <Array as="points">
              <mxPoint x="360" y="1040" />
            </Array>
          </mxGeometry>
        </mxCell>
        <mxCell id="NfrgRwzKYSXaAvylqiEs-1" value="%" style="endArrow=classic;html=1;rounded=0;entryX=0.5;entryY=0;entryDx=0;entryDy=0;" parent="1" source="1iSN-tlwbd-F4aJp31QX-1" target="NfrgRwzKYSXaAvylqiEs-2" edge="1">
          <mxGeometry x="0.0075" width="50" height="50" relative="1" as="geometry">
            <mxPoint x="90" y="528" as="sourcePoint" />
            <mxPoint x="30" y="720" as="targetPoint" />
            <mxPoint as="offset" />
          </mxGeometry>
        </mxCell>
        <mxCell id="NfrgRwzKYSXaAvylqiEs-2" value="38 (BinaryOp)" style="ellipse;shape=doubleEllipse;whiteSpace=wrap;html=1;aspect=fixed;" parent="1" vertex="1">
          <mxGeometry x="10" y="740" width="80" height="80" as="geometry" />
        </mxCell>
        <mxCell id="TmSngxb7w34U3onUQ0GS-1" value="0" style="ellipse;whiteSpace=wrap;html=1;aspect=fixed;" vertex="1" parent="1">
          <mxGeometry x="1760" y="415" width="80" height="80" as="geometry" />
        </mxCell>
        <mxCell id="TmSngxb7w34U3onUQ0GS-2" value="4 (Idenfitier)" style="ellipse;shape=doubleEllipse;whiteSpace=wrap;html=1;aspect=fixed;" vertex="1" parent="1">
          <mxGeometry x="1910" y="260" width="80" height="80" as="geometry" />
        </mxCell>
        <mxCell id="TmSngxb7w34U3onUQ0GS-3" value="Letter" style="endArrow=classic;html=1;rounded=0;exitX=1;exitY=0;exitDx=0;exitDy=0;entryX=0;entryY=1;entryDx=0;entryDy=0;" edge="1" parent="1" source="TmSngxb7w34U3onUQ0GS-1" target="TmSngxb7w34U3onUQ0GS-2">
          <mxGeometry width="50" height="50" relative="1" as="geometry">
            <mxPoint x="1790.0042712474649" y="386.7157287525349" as="sourcePoint" />
            <mxPoint x="1883.44" y="390" as="targetPoint" />
          </mxGeometry>
        </mxCell>
        <mxCell id="TmSngxb7w34U3onUQ0GS-4" value="Letter, Digit, Underscore" style="curved=1;endArrow=classic;html=1;rounded=0;exitX=0;exitY=0.5;exitDx=0;exitDy=0;entryX=0;entryY=0;entryDx=0;entryDy=0;" edge="1" parent="1" source="TmSngxb7w34U3onUQ0GS-2" target="TmSngxb7w34U3onUQ0GS-2">
          <mxGeometry x="0.5059" y="1" width="50" height="50" relative="1" as="geometry">
            <mxPoint x="1813.44" y="340" as="sourcePoint" />
            <mxPoint x="1863.44" y="290" as="targetPoint" />
            <Array as="points">
              <mxPoint x="1870" y="250" />
            </Array>
            <mxPoint as="offset" />
          </mxGeometry>
        </mxCell>
        <mxCell id="TmSngxb7w34U3onUQ0GS-5" value="" style="edgeStyle=orthogonalEdgeStyle;rounded=0;orthogonalLoop=1;jettySize=auto;html=1;" edge="1" parent="1" source="TmSngxb7w34U3onUQ0GS-6" target="TmSngxb7w34U3onUQ0GS-9">
          <mxGeometry relative="1" as="geometry" />
        </mxCell>
        <mxCell id="TmSngxb7w34U3onUQ0GS-6" value="1 (Integer Literal)" style="ellipse;shape=doubleEllipse;whiteSpace=wrap;html=1;aspect=fixed;" vertex="1" parent="1">
          <mxGeometry x="1910" y="415" width="80" height="80" as="geometry" />
        </mxCell>
        <mxCell id="TmSngxb7w34U3onUQ0GS-7" value="Digit" style="endArrow=classic;html=1;rounded=0;exitX=1;exitY=0.5;exitDx=0;exitDy=0;entryX=0;entryY=0.5;entryDx=0;entryDy=0;" edge="1" parent="1" source="TmSngxb7w34U3onUQ0GS-1" target="TmSngxb7w34U3onUQ0GS-6">
          <mxGeometry width="50" height="50" relative="1" as="geometry">
            <mxPoint x="1838" y="437" as="sourcePoint" />
            <mxPoint x="1875" y="388" as="targetPoint" />
          </mxGeometry>
        </mxCell>
        <mxCell id="TmSngxb7w34U3onUQ0GS-8" value="Digit" style="curved=1;endArrow=classic;html=1;rounded=0;exitX=0.5;exitY=0;exitDx=0;exitDy=0;entryX=1;entryY=0;entryDx=0;entryDy=0;elbow=vertical;" edge="1" parent="1" source="TmSngxb7w34U3onUQ0GS-6" target="TmSngxb7w34U3onUQ0GS-6">
          <mxGeometry x="0.5511" y="-4" width="50" height="50" relative="1" as="geometry">
            <mxPoint x="1970" y="410" as="sourcePoint" />
            <mxPoint x="2020" y="360" as="targetPoint" />
            <Array as="points">
              <mxPoint x="1990" y="370" />
            </Array>
            <mxPoint as="offset" />
          </mxGeometry>
        </mxCell>
        <mxCell id="TmSngxb7w34U3onUQ0GS-9" value="2" style="ellipse;whiteSpace=wrap;html=1;aspect=fixed;" vertex="1" parent="1">
          <mxGeometry x="2060" y="415" width="80" height="80" as="geometry" />
        </mxCell>
        <mxCell id="TmSngxb7w34U3onUQ0GS-10" value="3 (Float Literal)" style="ellipse;shape=doubleEllipse;whiteSpace=wrap;html=1;aspect=fixed;" vertex="1" parent="1">
          <mxGeometry x="2180" y="415" width="80" height="80" as="geometry" />
        </mxCell>
        <mxCell id="TmSngxb7w34U3onUQ0GS-11" value="Digit" style="curved=1;endArrow=classic;html=1;rounded=0;exitX=0;exitY=0;exitDx=0;exitDy=0;entryX=0.5;entryY=0;entryDx=0;entryDy=0;" edge="1" parent="1" source="TmSngxb7w34U3onUQ0GS-10" target="TmSngxb7w34U3onUQ0GS-10">
          <mxGeometry width="50" height="50" relative="1" as="geometry">
            <mxPoint x="1960" y="425" as="sourcePoint" />
            <mxPoint x="1988" y="437" as="targetPoint" />
            <Array as="points">
              <mxPoint x="2180" y="380" />
            </Array>
          </mxGeometry>
        </mxCell>
        <mxCell id="TmSngxb7w34U3onUQ0GS-12" value="Fullstop" style="endArrow=classic;html=1;rounded=0;entryX=0;entryY=0.5;entryDx=0;entryDy=0;" edge="1" parent="1" target="TmSngxb7w34U3onUQ0GS-9">
          <mxGeometry width="50" height="50" relative="1" as="geometry">
            <mxPoint x="1990" y="455" as="sourcePoint" />
            <mxPoint x="2060" y="454.65999999999997" as="targetPoint" />
          </mxGeometry>
        </mxCell>
        <mxCell id="TmSngxb7w34U3onUQ0GS-13" value="Digit" style="endArrow=classic;html=1;rounded=0;exitX=1;exitY=0.5;exitDx=0;exitDy=0;entryX=0;entryY=0.5;entryDx=0;entryDy=0;" edge="1" parent="1" source="TmSngxb7w34U3onUQ0GS-9" target="TmSngxb7w34U3onUQ0GS-10">
          <mxGeometry width="50" height="50" relative="1" as="geometry">
            <mxPoint x="1850" y="465" as="sourcePoint" />
            <mxPoint x="1920" y="465" as="targetPoint" />
          </mxGeometry>
        </mxCell>
        <mxCell id="TmSngxb7w34U3onUQ0GS-60" value="27" style="ellipse;whiteSpace=wrap;html=1;aspect=fixed;" vertex="1" parent="1">
          <mxGeometry x="1860" y="560" width="80" height="80" as="geometry" />
        </mxCell>
        <mxCell id="TmSngxb7w34U3onUQ0GS-61" value="28" style="ellipse;whiteSpace=wrap;html=1;aspect=fixed;" vertex="1" parent="1">
          <mxGeometry x="1980" y="560" width="80" height="80" as="geometry" />
        </mxCell>
        <mxCell id="TmSngxb7w34U3onUQ0GS-62" value="29" style="ellipse;whiteSpace=wrap;html=1;aspect=fixed;" vertex="1" parent="1">
          <mxGeometry x="2090" y="560" width="80" height="80" as="geometry" />
        </mxCell>
        <mxCell id="TmSngxb7w34U3onUQ0GS-63" value="31" style="ellipse;whiteSpace=wrap;html=1;aspect=fixed;" vertex="1" parent="1">
          <mxGeometry x="2210" y="680" width="80" height="80" as="geometry" />
        </mxCell>
        <mxCell id="TmSngxb7w34U3onUQ0GS-64" value="30" style="ellipse;whiteSpace=wrap;html=1;aspect=fixed;" vertex="1" parent="1">
          <mxGeometry x="2210" y="560" width="80" height="80" as="geometry" />
        </mxCell>
        <mxCell id="TmSngxb7w34U3onUQ0GS-65" value="32" style="ellipse;whiteSpace=wrap;html=1;aspect=fixed;" vertex="1" parent="1">
          <mxGeometry x="2090" y="680" width="80" height="80" as="geometry" />
        </mxCell>
        <mxCell id="TmSngxb7w34U3onUQ0GS-66" value="#" style="endArrow=classic;html=1;rounded=0;exitX=1;exitY=1;exitDx=0;exitDy=0;" edge="1" parent="1" source="TmSngxb7w34U3onUQ0GS-1" target="TmSngxb7w34U3onUQ0GS-60">
          <mxGeometry x="0.0056" width="50" height="50" relative="1" as="geometry">
            <mxPoint x="1838" y="493" as="sourcePoint" />
            <mxPoint x="1962" y="542" as="targetPoint" />
            <mxPoint as="offset" />
          </mxGeometry>
        </mxCell>
        <mxCell id="TmSngxb7w34U3onUQ0GS-67" value="33 (Colour Literal)" style="ellipse;shape=doubleEllipse;whiteSpace=wrap;html=1;aspect=fixed;" vertex="1" parent="1">
          <mxGeometry x="1970" y="680" width="80" height="80" as="geometry" />
        </mxCell>
        <mxCell id="TmSngxb7w34U3onUQ0GS-69" value="Hex" style="endArrow=classic;html=1;rounded=0;exitX=1;exitY=0.5;exitDx=0;exitDy=0;entryX=0;entryY=0.5;entryDx=0;entryDy=0;" edge="1" parent="1" source="TmSngxb7w34U3onUQ0GS-60" target="TmSngxb7w34U3onUQ0GS-61">
          <mxGeometry x="0.0056" width="50" height="50" relative="1" as="geometry">
            <mxPoint x="1618" y="443" as="sourcePoint" />
            <mxPoint x="1870" y="610" as="targetPoint" />
            <mxPoint as="offset" />
          </mxGeometry>
        </mxCell>
        <mxCell id="TmSngxb7w34U3onUQ0GS-70" value="Hex" style="endArrow=classic;html=1;rounded=0;exitX=1;exitY=0.5;exitDx=0;exitDy=0;entryX=0;entryY=0.5;entryDx=0;entryDy=0;" edge="1" parent="1" source="TmSngxb7w34U3onUQ0GS-61" target="TmSngxb7w34U3onUQ0GS-62">
          <mxGeometry x="0.0056" width="50" height="50" relative="1" as="geometry">
            <mxPoint x="1950" y="610" as="sourcePoint" />
            <mxPoint x="1990" y="610" as="targetPoint" />
            <mxPoint as="offset" />
          </mxGeometry>
        </mxCell>
        <mxCell id="TmSngxb7w34U3onUQ0GS-71" value="Hex" style="endArrow=classic;html=1;rounded=0;exitX=1;exitY=0.5;exitDx=0;exitDy=0;entryX=0;entryY=0.5;entryDx=0;entryDy=0;" edge="1" parent="1" source="TmSngxb7w34U3onUQ0GS-62" target="TmSngxb7w34U3onUQ0GS-64">
          <mxGeometry x="0.0056" width="50" height="50" relative="1" as="geometry">
            <mxPoint x="2070" y="610" as="sourcePoint" />
            <mxPoint x="2100" y="610" as="targetPoint" />
            <mxPoint as="offset" />
          </mxGeometry>
        </mxCell>
        <mxCell id="TmSngxb7w34U3onUQ0GS-72" value="Hex" style="endArrow=classic;html=1;rounded=0;exitX=0.5;exitY=1;exitDx=0;exitDy=0;entryX=0.5;entryY=0;entryDx=0;entryDy=0;" edge="1" parent="1" source="TmSngxb7w34U3onUQ0GS-64" target="TmSngxb7w34U3onUQ0GS-63">
          <mxGeometry x="0.0056" width="50" height="50" relative="1" as="geometry">
            <mxPoint x="2180" y="610" as="sourcePoint" />
            <mxPoint x="2220" y="610" as="targetPoint" />
            <mxPoint as="offset" />
          </mxGeometry>
        </mxCell>
        <mxCell id="TmSngxb7w34U3onUQ0GS-73" value="Hex" style="endArrow=classic;html=1;rounded=0;exitX=0;exitY=0.5;exitDx=0;exitDy=0;entryX=1;entryY=0.5;entryDx=0;entryDy=0;" edge="1" parent="1" source="TmSngxb7w34U3onUQ0GS-63" target="TmSngxb7w34U3onUQ0GS-65">
          <mxGeometry x="0.0056" width="50" height="50" relative="1" as="geometry">
            <mxPoint x="2260" y="650" as="sourcePoint" />
            <mxPoint x="2260" y="690" as="targetPoint" />
            <mxPoint as="offset" />
          </mxGeometry>
        </mxCell>
        <mxCell id="TmSngxb7w34U3onUQ0GS-74" value="Hex" style="endArrow=classic;html=1;rounded=0;exitX=0;exitY=0.5;exitDx=0;exitDy=0;entryX=1;entryY=0.5;entryDx=0;entryDy=0;" edge="1" parent="1" source="TmSngxb7w34U3onUQ0GS-65" target="TmSngxb7w34U3onUQ0GS-67">
          <mxGeometry x="0.0056" width="50" height="50" relative="1" as="geometry">
            <mxPoint x="2220" y="730" as="sourcePoint" />
            <mxPoint x="2180" y="730" as="targetPoint" />
            <mxPoint as="offset" />
          </mxGeometry>
        </mxCell>
        <mxCell id="TmSngxb7w34U3onUQ0GS-81" value="_" style="endArrow=classic;html=1;rounded=0;exitX=0.5;exitY=1;exitDx=0;exitDy=0;entryX=0.5;entryY=0;entryDx=0;entryDy=0;" edge="1" parent="1" target="TmSngxb7w34U3onUQ0GS-78">
          <mxGeometry x="0.0056" width="50" height="50" relative="1" as="geometry">
            <mxPoint x="1980" y="809.9999999999998" as="sourcePoint" />
            <mxPoint x="1990" y="740" as="targetPoint" />
            <mxPoint as="offset" />
          </mxGeometry>
        </mxCell>
        <mxCell id="TmSngxb7w34U3onUQ0GS-82" value="_, Letter" style="endArrow=classic;html=1;rounded=0;exitX=0.5;exitY=1;exitDx=0;exitDy=0;entryX=0.5;entryY=0;entryDx=0;entryDy=0;" edge="1" parent="1" target="TmSngxb7w34U3onUQ0GS-79">
          <mxGeometry x="0.0056" width="50" height="50" relative="1" as="geometry">
            <mxPoint x="1980" y="919.9999999999998" as="sourcePoint" />
            <mxPoint x="2000" y="940" as="targetPoint" />
            <mxPoint as="offset" />
          </mxGeometry>
        </mxCell>
        <mxCell id="TmSngxb7w34U3onUQ0GS-86" value="0" style="ellipse;whiteSpace=wrap;html=1;aspect=fixed;" vertex="1" parent="1">
          <mxGeometry x="1830" y="1245" width="80" height="80" as="geometry" />
        </mxCell>
        <mxCell id="TmSngxb7w34U3onUQ0GS-99" value="5 (AdditiveOp)" style="ellipse;shape=doubleEllipse;whiteSpace=wrap;html=1;aspect=fixed;" vertex="1" parent="1">
          <mxGeometry x="1950" y="1430" width="80" height="80" as="geometry" />
        </mxCell>
        <mxCell id="TmSngxb7w34U3onUQ0GS-100" value="-" style="endArrow=classic;html=1;rounded=0;exitX=0.5;exitY=1;exitDx=0;exitDy=0;entryX=0.5;entryY=0;entryDx=0;entryDy=0;" edge="1" parent="1" source="TmSngxb7w34U3onUQ0GS-86" target="TmSngxb7w34U3onUQ0GS-139">
          <mxGeometry x="0.0027" width="50" height="50" relative="1" as="geometry">
            <mxPoint x="1920" y="1295" as="sourcePoint" />
            <mxPoint x="1990" y="1295" as="targetPoint" />
            <mxPoint as="offset" />
          </mxGeometry>
        </mxCell>
        <mxCell id="TmSngxb7w34U3onUQ0GS-101" value="6 (BinaryOp)" style="ellipse;shape=doubleEllipse;whiteSpace=wrap;html=1;aspect=fixed;" vertex="1" parent="1">
          <mxGeometry x="1710" y="1480" width="80" height="80" as="geometry" />
        </mxCell>
        <mxCell id="TmSngxb7w34U3onUQ0GS-102" value="/" style="endArrow=classic;html=1;rounded=0;exitX=0.5;exitY=1;exitDx=0;exitDy=0;entryX=0.5;entryY=0;entryDx=0;entryDy=0;" edge="1" parent="1" source="TmSngxb7w34U3onUQ0GS-86" target="TmSngxb7w34U3onUQ0GS-101">
          <mxGeometry x="0.0075" width="50" height="50" relative="1" as="geometry">
            <mxPoint x="1880" y="1335" as="sourcePoint" />
            <mxPoint x="1945" y="1402" as="targetPoint" />
            <mxPoint as="offset" />
          </mxGeometry>
        </mxCell>
        <mxCell id="TmSngxb7w34U3onUQ0GS-103" value="7 (LineComment)" style="ellipse;shape=doubleEllipse;whiteSpace=wrap;html=1;aspect=fixed;" vertex="1" parent="1">
          <mxGeometry x="1660" y="1600" width="80" height="80" as="geometry" />
        </mxCell>
        <mxCell id="TmSngxb7w34U3onUQ0GS-104" value="/" style="endArrow=classic;html=1;rounded=0;exitX=0.5;exitY=1;exitDx=0;exitDy=0;entryX=0.5;entryY=0;entryDx=0;entryDy=0;" edge="1" parent="1" source="TmSngxb7w34U3onUQ0GS-101" target="TmSngxb7w34U3onUQ0GS-103">
          <mxGeometry x="0.0027" width="50" height="50" relative="1" as="geometry">
            <mxPoint x="1790" y="1415" as="sourcePoint" />
            <mxPoint x="1760" y="1490" as="targetPoint" />
            <mxPoint as="offset" />
          </mxGeometry>
        </mxCell>
        <mxCell id="TmSngxb7w34U3onUQ0GS-105" value="9 (BinaryOp)" style="ellipse;shape=doubleEllipse;whiteSpace=wrap;html=1;aspect=fixed;" vertex="1" parent="1">
          <mxGeometry x="1830" y="1120" width="80" height="80" as="geometry" />
        </mxCell>
        <mxCell id="TmSngxb7w34U3onUQ0GS-106" value="*" style="endArrow=classic;html=1;rounded=0;exitX=0.5;exitY=0;exitDx=0;exitDy=0;entryX=0.5;entryY=1;entryDx=0;entryDy=0;" edge="1" parent="1" source="TmSngxb7w34U3onUQ0GS-86" target="TmSngxb7w34U3onUQ0GS-105">
          <mxGeometry x="0.0075" width="50" height="50" relative="1" as="geometry">
            <mxPoint x="1880" y="1335" as="sourcePoint" />
            <mxPoint x="1850" y="1410" as="targetPoint" />
            <mxPoint as="offset" />
          </mxGeometry>
        </mxCell>
        <mxCell id="TmSngxb7w34U3onUQ0GS-107" value="8 (OpenBlock&lt;div&gt;Comment)&lt;/div&gt;" style="ellipse;shape=doubleEllipse;whiteSpace=wrap;html=1;aspect=fixed;" vertex="1" parent="1">
          <mxGeometry x="1770" y="1600" width="80" height="80" as="geometry" />
        </mxCell>
        <mxCell id="TmSngxb7w34U3onUQ0GS-108" value="*" style="endArrow=classic;html=1;rounded=0;exitX=0.5;exitY=1;exitDx=0;exitDy=0;entryX=0.5;entryY=0;entryDx=0;entryDy=0;" edge="1" parent="1" source="TmSngxb7w34U3onUQ0GS-101" target="TmSngxb7w34U3onUQ0GS-107">
          <mxGeometry x="0.0027" width="50" height="50" relative="1" as="geometry">
            <mxPoint x="1760" y="1570" as="sourcePoint" />
            <mxPoint x="1760" y="1610" as="targetPoint" />
            <mxPoint as="offset" />
          </mxGeometry>
        </mxCell>
        <mxCell id="TmSngxb7w34U3onUQ0GS-109" value="10 (CloseBlock&lt;div&gt;Comment)&lt;/div&gt;" style="ellipse;shape=doubleEllipse;whiteSpace=wrap;html=1;aspect=fixed;" vertex="1" parent="1">
          <mxGeometry x="1970" y="1120" width="80" height="80" as="geometry" />
        </mxCell>
        <mxCell id="TmSngxb7w34U3onUQ0GS-110" value="/" style="endArrow=classic;html=1;rounded=0;exitX=1;exitY=0.5;exitDx=0;exitDy=0;entryX=0;entryY=0.5;entryDx=0;entryDy=0;" edge="1" parent="1" source="TmSngxb7w34U3onUQ0GS-105" target="TmSngxb7w34U3onUQ0GS-109">
          <mxGeometry x="0.0027" width="50" height="50" relative="1" as="geometry">
            <mxPoint x="1850" y="1490" as="sourcePoint" />
            <mxPoint x="1800" y="1530" as="targetPoint" />
            <mxPoint as="offset" />
          </mxGeometry>
        </mxCell>
        <mxCell id="TmSngxb7w34U3onUQ0GS-111" value="11 (BinaryOp)" style="ellipse;shape=doubleEllipse;whiteSpace=wrap;html=1;aspect=fixed;" vertex="1" parent="1">
          <mxGeometry x="1630" y="1320" width="80" height="80" as="geometry" />
        </mxCell>
        <mxCell id="TmSngxb7w34U3onUQ0GS-112" value="&amp;lt;, &amp;gt;" style="endArrow=classic;html=1;rounded=0;exitX=0;exitY=0.5;exitDx=0;exitDy=0;entryX=1;entryY=0.5;entryDx=0;entryDy=0;" edge="1" parent="1" source="TmSngxb7w34U3onUQ0GS-86" target="TmSngxb7w34U3onUQ0GS-111">
          <mxGeometry x="0.0075" width="50" height="50" relative="1" as="geometry">
            <mxPoint x="1870" y="1240" as="sourcePoint" />
            <mxPoint x="1730" y="1305" as="targetPoint" />
            <mxPoint as="offset" />
          </mxGeometry>
        </mxCell>
        <mxCell id="TmSngxb7w34U3onUQ0GS-113" value="14 (BinaryOp)" style="ellipse;shape=doubleEllipse;whiteSpace=wrap;html=1;aspect=fixed;" vertex="1" parent="1">
          <mxGeometry x="1470" y="1320" width="80" height="80" as="geometry" />
        </mxCell>
        <mxCell id="TmSngxb7w34U3onUQ0GS-114" value="=" style="endArrow=classic;html=1;rounded=0;exitX=0;exitY=0.5;exitDx=0;exitDy=0;entryX=1;entryY=0.5;entryDx=0;entryDy=0;" edge="1" parent="1" source="TmSngxb7w34U3onUQ0GS-111" target="TmSngxb7w34U3onUQ0GS-113">
          <mxGeometry x="0.0075" width="50" height="50" relative="1" as="geometry">
            <mxPoint x="1810" y="1405" as="sourcePoint" />
            <mxPoint x="1720" y="1370" as="targetPoint" />
            <mxPoint as="offset" />
          </mxGeometry>
        </mxCell>
        <mxCell id="TmSngxb7w34U3onUQ0GS-115" value="12 (Equals)" style="ellipse;shape=doubleEllipse;whiteSpace=wrap;html=1;aspect=fixed;" vertex="1" parent="1">
          <mxGeometry x="1630" y="1410" width="80" height="80" as="geometry" />
        </mxCell>
        <mxCell id="TmSngxb7w34U3onUQ0GS-116" value="=" style="endArrow=classic;html=1;rounded=0;exitX=0;exitY=0.5;exitDx=0;exitDy=0;entryX=0.998;entryY=0.451;entryDx=0;entryDy=0;entryPerimeter=0;" edge="1" parent="1" source="TmSngxb7w34U3onUQ0GS-86" target="TmSngxb7w34U3onUQ0GS-115">
          <mxGeometry x="0.0075" width="50" height="50" relative="1" as="geometry">
            <mxPoint x="1840" y="1295" as="sourcePoint" />
            <mxPoint x="1750" y="1260" as="targetPoint" />
            <mxPoint as="offset" />
          </mxGeometry>
        </mxCell>
        <mxCell id="TmSngxb7w34U3onUQ0GS-117" value="=" style="endArrow=classic;html=1;rounded=0;exitX=0;exitY=0.5;exitDx=0;exitDy=0;entryX=1;entryY=1;entryDx=0;entryDy=0;" edge="1" parent="1" source="TmSngxb7w34U3onUQ0GS-115" target="TmSngxb7w34U3onUQ0GS-113">
          <mxGeometry x="0.0075" width="50" height="50" relative="1" as="geometry">
            <mxPoint x="1822" y="1433" as="sourcePoint" />
            <mxPoint x="1720" y="1456" as="targetPoint" />
            <mxPoint as="offset" />
          </mxGeometry>
        </mxCell>
        <mxCell id="TmSngxb7w34U3onUQ0GS-118" value="13" style="ellipse;whiteSpace=wrap;html=1;aspect=fixed;" vertex="1" parent="1">
          <mxGeometry x="1630" y="1230" width="80" height="80" as="geometry" />
        </mxCell>
        <mxCell id="TmSngxb7w34U3onUQ0GS-119" value="!" style="endArrow=classic;html=1;rounded=0;entryX=0.996;entryY=0.59;entryDx=0;entryDy=0;entryPerimeter=0;" edge="1" parent="1" source="TmSngxb7w34U3onUQ0GS-86" target="TmSngxb7w34U3onUQ0GS-118">
          <mxGeometry x="0.0075" width="50" height="50" relative="1" as="geometry">
            <mxPoint x="1840" y="1295" as="sourcePoint" />
            <mxPoint x="1750" y="1260" as="targetPoint" />
            <mxPoint as="offset" />
          </mxGeometry>
        </mxCell>
        <mxCell id="TmSngxb7w34U3onUQ0GS-120" value="=" style="endArrow=classic;html=1;rounded=0;exitX=0;exitY=0.5;exitDx=0;exitDy=0;entryX=1;entryY=0;entryDx=0;entryDy=0;" edge="1" parent="1" source="TmSngxb7w34U3onUQ0GS-118" target="TmSngxb7w34U3onUQ0GS-113">
          <mxGeometry x="0.0075" width="50" height="50" relative="1" as="geometry">
            <mxPoint x="1640" y="1370" as="sourcePoint" />
            <mxPoint x="1560" y="1370" as="targetPoint" />
            <mxPoint as="offset" />
          </mxGeometry>
        </mxCell>
        <mxCell id="TmSngxb7w34U3onUQ0GS-139" value="24 (AdditiveOp)" style="ellipse;shape=doubleEllipse;whiteSpace=wrap;html=1;aspect=fixed;" vertex="1" parent="1">
          <mxGeometry x="1860" y="1440" width="80" height="80" as="geometry" />
        </mxCell>
        <mxCell id="TmSngxb7w34U3onUQ0GS-140" value="+" style="endArrow=classic;html=1;rounded=0;exitX=0.5;exitY=1;exitDx=0;exitDy=0;entryX=0;entryY=0;entryDx=0;entryDy=0;" edge="1" parent="1" source="TmSngxb7w34U3onUQ0GS-86" target="TmSngxb7w34U3onUQ0GS-99">
          <mxGeometry x="0.0027" width="50" height="50" relative="1" as="geometry">
            <mxPoint x="1880" y="1335" as="sourcePoint" />
            <mxPoint x="1860" y="1420" as="targetPoint" />
            <mxPoint as="offset" />
          </mxGeometry>
        </mxCell>
        <mxCell id="TmSngxb7w34U3onUQ0GS-141" value="25 (Arrow)" style="ellipse;shape=doubleEllipse;whiteSpace=wrap;html=1;aspect=fixed;" vertex="1" parent="1">
          <mxGeometry x="1910" y="1550" width="80" height="80" as="geometry" />
        </mxCell>
        <mxCell id="TmSngxb7w34U3onUQ0GS-142" value="&amp;gt;" style="endArrow=classic;html=1;rounded=0;exitX=0.5;exitY=1;exitDx=0;exitDy=0;entryX=0;entryY=0;entryDx=0;entryDy=0;" edge="1" parent="1" source="TmSngxb7w34U3onUQ0GS-139" target="TmSngxb7w34U3onUQ0GS-141">
          <mxGeometry x="0.0027" width="50" height="50" relative="1" as="geometry">
            <mxPoint x="1880" y="1335" as="sourcePoint" />
            <mxPoint x="1860" y="1420" as="targetPoint" />
            <mxPoint as="offset" />
          </mxGeometry>
        </mxCell>
        <mxCell id="TmSngxb7w34U3onUQ0GS-169" value="%" style="endArrow=classic;html=1;rounded=0;entryX=0;entryY=0.5;entryDx=0;entryDy=0;" edge="1" parent="1" source="TmSngxb7w34U3onUQ0GS-86" target="TmSngxb7w34U3onUQ0GS-170">
          <mxGeometry x="0.0075" width="50" height="50" relative="1" as="geometry">
            <mxPoint x="1850" y="1268" as="sourcePoint" />
            <mxPoint x="1790" y="1460" as="targetPoint" />
            <mxPoint as="offset" />
          </mxGeometry>
        </mxCell>
        <mxCell id="TmSngxb7w34U3onUQ0GS-170" value="38 (BinaryOp)" style="ellipse;shape=doubleEllipse;whiteSpace=wrap;html=1;aspect=fixed;" vertex="1" parent="1">
          <mxGeometry x="2000" y="1260" width="80" height="80" as="geometry" />
        </mxCell>
        <mxCell id="TmSngxb7w34U3onUQ0GS-256" value="0" style="ellipse;whiteSpace=wrap;html=1;aspect=fixed;" vertex="1" parent="1">
          <mxGeometry x="2470" y="1723" width="80" height="80" as="geometry" />
        </mxCell>
        <mxCell id="TmSngxb7w34U3onUQ0GS-260" value="" style="edgeStyle=orthogonalEdgeStyle;rounded=0;orthogonalLoop=1;jettySize=auto;html=1;" edge="1" parent="1" target="TmSngxb7w34U3onUQ0GS-264">
          <mxGeometry relative="1" as="geometry">
            <mxPoint x="2700" y="1763" as="sourcePoint" />
          </mxGeometry>
        </mxCell>
        <mxCell id="TmSngxb7w34U3onUQ0GS-268" value="Digit" style="endArrow=classic;html=1;rounded=0;exitX=1;exitY=0.5;exitDx=0;exitDy=0;entryX=0;entryY=0.5;entryDx=0;entryDy=0;" edge="1" parent="1" target="TmSngxb7w34U3onUQ0GS-265">
          <mxGeometry width="50" height="50" relative="1" as="geometry">
            <mxPoint x="2850" y="1763" as="sourcePoint" />
            <mxPoint x="2630" y="1773" as="targetPoint" />
          </mxGeometry>
        </mxCell>
        <mxCell id="TmSngxb7w34U3onUQ0GS-291" value="15 (Comma)" style="ellipse;shape=doubleEllipse;whiteSpace=wrap;html=1;aspect=fixed;" vertex="1" parent="1">
          <mxGeometry x="2650" y="1860" width="80" height="80" as="geometry" />
        </mxCell>
        <mxCell id="TmSngxb7w34U3onUQ0GS-292" value="," style="endArrow=classic;html=1;rounded=0;entryX=0;entryY=0;entryDx=0;entryDy=0;" edge="1" parent="1" source="TmSngxb7w34U3onUQ0GS-256" target="TmSngxb7w34U3onUQ0GS-291">
          <mxGeometry x="0.0056" width="50" height="50" relative="1" as="geometry">
            <mxPoint x="2520" y="1813" as="sourcePoint" />
            <mxPoint x="2572" y="1890" as="targetPoint" />
            <mxPoint as="offset" />
          </mxGeometry>
        </mxCell>
        <mxCell id="TmSngxb7w34U3onUQ0GS-293" value="16 (Colon)" style="ellipse;shape=doubleEllipse;whiteSpace=wrap;html=1;aspect=fixed;" vertex="1" parent="1">
          <mxGeometry x="2470" y="1900" width="80" height="80" as="geometry" />
        </mxCell>
        <mxCell id="TmSngxb7w34U3onUQ0GS-294" value="17 (Semicolon)" style="ellipse;shape=doubleEllipse;whiteSpace=wrap;html=1;aspect=fixed;" vertex="1" parent="1">
          <mxGeometry x="2720" y="1723" width="80" height="80" as="geometry" />
        </mxCell>
        <mxCell id="TmSngxb7w34U3onUQ0GS-295" value=":" style="endArrow=classic;html=1;rounded=0;exitX=0.5;exitY=1;exitDx=0;exitDy=0;" edge="1" parent="1" source="TmSngxb7w34U3onUQ0GS-256" target="TmSngxb7w34U3onUQ0GS-293">
          <mxGeometry x="0.0056" width="50" height="50" relative="1" as="geometry">
            <mxPoint x="2548" y="1801" as="sourcePoint" />
            <mxPoint x="2672" y="1850" as="targetPoint" />
            <mxPoint as="offset" />
          </mxGeometry>
        </mxCell>
        <mxCell id="TmSngxb7w34U3onUQ0GS-296" value=";" style="endArrow=classic;html=1;rounded=0;exitX=1;exitY=0.5;exitDx=0;exitDy=0;entryX=0;entryY=0.5;entryDx=0;entryDy=0;" edge="1" parent="1" source="TmSngxb7w34U3onUQ0GS-256" target="TmSngxb7w34U3onUQ0GS-294">
          <mxGeometry x="0.0056" width="50" height="50" relative="1" as="geometry">
            <mxPoint x="2548" y="1801" as="sourcePoint" />
            <mxPoint x="2760" y="1828" as="targetPoint" />
            <mxPoint as="offset" />
          </mxGeometry>
        </mxCell>
        <mxCell id="TmSngxb7w34U3onUQ0GS-313" value="26 (New Line)" style="ellipse;shape=doubleEllipse;whiteSpace=wrap;html=1;aspect=fixed;" vertex="1" parent="1">
          <mxGeometry x="2270" y="1590" width="80" height="80" as="geometry" />
        </mxCell>
        <mxCell id="TmSngxb7w34U3onUQ0GS-314" value="New line" style="endArrow=classic;html=1;rounded=0;exitX=0;exitY=0;exitDx=0;exitDy=0;entryX=1;entryY=1;entryDx=0;entryDy=0;" edge="1" parent="1" source="TmSngxb7w34U3onUQ0GS-256" target="TmSngxb7w34U3onUQ0GS-313">
          <mxGeometry width="50" height="50" relative="1" as="geometry">
            <mxPoint x="2548" y="1745" as="sourcePoint" />
            <mxPoint x="2832" y="1626" as="targetPoint" />
          </mxGeometry>
        </mxCell>
        <mxCell id="TmSngxb7w34U3onUQ0GS-323" value="34 (Whitespace)" style="ellipse;shape=doubleEllipse;whiteSpace=wrap;html=1;aspect=fixed;" vertex="1" parent="1">
          <mxGeometry x="2660" y="1630" width="80" height="80" as="geometry" />
        </mxCell>
        <mxCell id="TmSngxb7w34U3onUQ0GS-330" value="Whitespace" style="endArrow=classic;html=1;rounded=0;" edge="1" parent="1" source="TmSngxb7w34U3onUQ0GS-256" target="TmSngxb7w34U3onUQ0GS-323">
          <mxGeometry width="50" height="50" relative="1" as="geometry">
            <mxPoint x="2548" y="1745" as="sourcePoint" />
            <mxPoint x="2940" y="1648" as="targetPoint" />
          </mxGeometry>
        </mxCell>
        <mxCell id="TmSngxb7w34U3onUQ0GS-331" value="Whitespace" style="curved=1;endArrow=classic;html=1;rounded=0;exitX=0.5;exitY=0;exitDx=0;exitDy=0;entryX=1;entryY=0;entryDx=0;entryDy=0;" edge="1" parent="1" source="TmSngxb7w34U3onUQ0GS-323" target="TmSngxb7w34U3onUQ0GS-323">
          <mxGeometry x="-0.4327" y="-4" width="50" height="50" relative="1" as="geometry">
            <mxPoint x="3022" y="1805" as="sourcePoint" />
            <mxPoint x="3050" y="1793" as="targetPoint" />
            <Array as="points">
              <mxPoint x="2740" y="1580" />
            </Array>
            <mxPoint as="offset" />
          </mxGeometry>
        </mxCell>
        <mxCell id="TmSngxb7w34U3onUQ0GS-332" value="35" style="ellipse;whiteSpace=wrap;html=1;aspect=fixed;" vertex="1" parent="1">
          <mxGeometry x="2236.56" y="1700" width="80" height="80" as="geometry" />
        </mxCell>
        <mxCell id="TmSngxb7w34U3onUQ0GS-333" value="36" style="ellipse;whiteSpace=wrap;html=1;aspect=fixed;" vertex="1" parent="1">
          <mxGeometry x="2236.56" y="1810" width="80" height="80" as="geometry" />
        </mxCell>
        <mxCell id="TmSngxb7w34U3onUQ0GS-334" value="37 (Builtin)" style="ellipse;shape=doubleEllipse;whiteSpace=wrap;html=1;aspect=fixed;" vertex="1" parent="1">
          <mxGeometry x="2236.56" y="1920" width="80" height="80" as="geometry" />
        </mxCell>
        <mxCell id="TmSngxb7w34U3onUQ0GS-335" value="_" style="endArrow=classic;html=1;rounded=0;exitX=0.073;exitY=0.295;exitDx=0;exitDy=0;entryX=1;entryY=0.5;entryDx=0;entryDy=0;exitPerimeter=0;" edge="1" parent="1" source="TmSngxb7w34U3onUQ0GS-256" target="TmSngxb7w34U3onUQ0GS-332">
          <mxGeometry x="0.0056" width="50" height="50" relative="1" as="geometry">
            <mxPoint x="2548" y="1801" as="sourcePoint" />
            <mxPoint x="2684" y="1958" as="targetPoint" />
            <mxPoint as="offset" />
          </mxGeometry>
        </mxCell>
        <mxCell id="TmSngxb7w34U3onUQ0GS-336" value="_" style="endArrow=classic;html=1;rounded=0;exitX=0.5;exitY=1;exitDx=0;exitDy=0;entryX=0.5;entryY=0;entryDx=0;entryDy=0;" edge="1" parent="1" source="TmSngxb7w34U3onUQ0GS-332" target="TmSngxb7w34U3onUQ0GS-333">
          <mxGeometry x="0.0056" width="50" height="50" relative="1" as="geometry">
            <mxPoint x="2134.56" y="1463" as="sourcePoint" />
            <mxPoint x="2286.56" y="1710" as="targetPoint" />
            <mxPoint as="offset" />
          </mxGeometry>
        </mxCell>
        <mxCell id="TmSngxb7w34U3onUQ0GS-337" value="_, Letter" style="endArrow=classic;html=1;rounded=0;exitX=0.5;exitY=1;exitDx=0;exitDy=0;entryX=0.5;entryY=0;entryDx=0;entryDy=0;" edge="1" parent="1" source="TmSngxb7w34U3onUQ0GS-333" target="TmSngxb7w34U3onUQ0GS-334">
          <mxGeometry x="0.0056" width="50" height="50" relative="1" as="geometry">
            <mxPoint x="2276.22" y="1890" as="sourcePoint" />
            <mxPoint x="2296.56" y="1910" as="targetPoint" />
            <mxPoint as="offset" />
          </mxGeometry>
        </mxCell>
        <mxCell id="TmSngxb7w34U3onUQ0GS-338" value="_, Letter" style="curved=1;endArrow=classic;html=1;rounded=0;exitX=1;exitY=0;exitDx=0;exitDy=0;entryX=1;entryY=0.5;entryDx=0;entryDy=0;" edge="1" parent="1" source="TmSngxb7w34U3onUQ0GS-334" target="TmSngxb7w34U3onUQ0GS-334">
          <mxGeometry width="50" height="50" relative="1" as="geometry">
            <mxPoint x="2306.56" y="1960" as="sourcePoint" />
            <mxPoint x="2334.56" y="1972" as="targetPoint" />
            <Array as="points">
              <mxPoint x="2356.56" y="1932" />
            </Array>
          </mxGeometry>
        </mxCell>
        <mxCell id="TmSngxb7w34U3onUQ0GS-341" value="" style="endArrow=classic;html=1;rounded=0;entryX=0;entryY=0.5;entryDx=0;entryDy=0;" edge="1" parent="1" target="TmSngxb7w34U3onUQ0GS-1">
          <mxGeometry width="50" height="50" relative="1" as="geometry">
            <mxPoint x="1700" y="455" as="sourcePoint" />
            <mxPoint x="1790" y="470" as="targetPoint" />
          </mxGeometry>
        </mxCell>
        <mxCell id="TmSngxb7w34U3onUQ0GS-344" value="" style="endArrow=classic;html=1;rounded=0;entryX=0.074;entryY=0.8;entryDx=0;entryDy=0;entryPerimeter=0;" edge="1" parent="1" target="TmSngxb7w34U3onUQ0GS-256">
          <mxGeometry width="50" height="50" relative="1" as="geometry">
            <mxPoint x="2430" y="1820" as="sourcePoint" />
            <mxPoint x="2470" y="1790" as="targetPoint" />
          </mxGeometry>
        </mxCell>
        <mxCell id="TmSngxb7w34U3onUQ0GS-345" value="" style="endArrow=classic;html=1;rounded=0;entryX=0;entryY=0;entryDx=0;entryDy=0;" edge="1" parent="1" target="TmSngxb7w34U3onUQ0GS-86">
          <mxGeometry width="50" height="50" relative="1" as="geometry">
            <mxPoint x="1790" y="1210" as="sourcePoint" />
            <mxPoint x="1830" y="1243.89" as="targetPoint" />
          </mxGeometry>
        </mxCell>
        <mxCell id="TmSngxb7w34U3onUQ0GS-346" value="18 (OpenParen)" style="ellipse;shape=doubleEllipse;whiteSpace=wrap;html=1;aspect=fixed;" vertex="1" parent="1">
          <mxGeometry x="2217" y="1428" width="80" height="80" as="geometry" />
        </mxCell>
        <mxCell id="TmSngxb7w34U3onUQ0GS-347" value="19 (CloseParen)" style="ellipse;shape=doubleEllipse;whiteSpace=wrap;html=1;aspect=fixed;" vertex="1" parent="1">
          <mxGeometry x="2340.44" y="1428" width="80" height="80" as="geometry" />
        </mxCell>
        <mxCell id="TmSngxb7w34U3onUQ0GS-348" value="(" style="endArrow=classic;html=1;rounded=0;entryX=0.5;entryY=1;entryDx=0;entryDy=0;exitX=0.5;exitY=0;exitDx=0;exitDy=0;" edge="1" parent="1" target="TmSngxb7w34U3onUQ0GS-346">
          <mxGeometry x="0.0075" width="50" height="50" relative="1" as="geometry">
            <mxPoint x="2510.44" y="1723" as="sourcePoint" />
            <mxPoint x="2390.44" y="1655" as="targetPoint" />
            <mxPoint as="offset" />
          </mxGeometry>
        </mxCell>
        <mxCell id="TmSngxb7w34U3onUQ0GS-349" value=")" style="endArrow=classic;html=1;rounded=0;exitX=0.5;exitY=0;exitDx=0;exitDy=0;" edge="1" parent="1" target="TmSngxb7w34U3onUQ0GS-347">
          <mxGeometry x="0.0075" width="50" height="50" relative="1" as="geometry">
            <mxPoint x="2510.44" y="1723" as="sourcePoint" />
            <mxPoint x="2390.44" y="1478" as="targetPoint" />
            <mxPoint as="offset" />
          </mxGeometry>
        </mxCell>
        <mxCell id="TmSngxb7w34U3onUQ0GS-350" value="20 (OpenSquare)" style="ellipse;shape=doubleEllipse;whiteSpace=wrap;html=1;aspect=fixed;" vertex="1" parent="1">
          <mxGeometry x="2430.44" y="1428" width="80" height="80" as="geometry" />
        </mxCell>
        <mxCell id="TmSngxb7w34U3onUQ0GS-351" value="21 (CloseSquare)" style="ellipse;shape=doubleEllipse;whiteSpace=wrap;html=1;aspect=fixed;" vertex="1" parent="1">
          <mxGeometry x="2553.88" y="1428" width="80" height="80" as="geometry" />
        </mxCell>
        <mxCell id="TmSngxb7w34U3onUQ0GS-352" value="22 (OpenCurly)" style="ellipse;shape=doubleEllipse;whiteSpace=wrap;html=1;aspect=fixed;" vertex="1" parent="1">
          <mxGeometry x="2650.44" y="1428" width="80" height="80" as="geometry" />
        </mxCell>
        <mxCell id="TmSngxb7w34U3onUQ0GS-353" value="23 (CloseCurly)" style="ellipse;shape=doubleEllipse;whiteSpace=wrap;html=1;aspect=fixed;" vertex="1" parent="1">
          <mxGeometry x="2773.88" y="1428" width="80" height="80" as="geometry" />
        </mxCell>
        <mxCell id="TmSngxb7w34U3onUQ0GS-354" value="[" style="endArrow=classic;html=1;rounded=0;exitX=0.5;exitY=0;exitDx=0;exitDy=0;entryX=0.5;entryY=1;entryDx=0;entryDy=0;" edge="1" parent="1" target="TmSngxb7w34U3onUQ0GS-350">
          <mxGeometry x="0.0075" width="50" height="50" relative="1" as="geometry">
            <mxPoint x="2510.44" y="1723" as="sourcePoint" />
            <mxPoint x="2408.44" y="1514" as="targetPoint" />
            <mxPoint as="offset" />
          </mxGeometry>
        </mxCell>
        <mxCell id="TmSngxb7w34U3onUQ0GS-355" value="]" style="endArrow=classic;html=1;rounded=0;exitX=0.5;exitY=0;exitDx=0;exitDy=0;entryX=0.5;entryY=1;entryDx=0;entryDy=0;" edge="1" parent="1" target="TmSngxb7w34U3onUQ0GS-351">
          <mxGeometry x="0.0075" width="50" height="50" relative="1" as="geometry">
            <mxPoint x="2510.44" y="1723" as="sourcePoint" />
            <mxPoint x="2480.44" y="1518" as="targetPoint" />
            <mxPoint as="offset" />
          </mxGeometry>
        </mxCell>
        <mxCell id="TmSngxb7w34U3onUQ0GS-356" value="{" style="endArrow=classic;html=1;rounded=0;exitX=0.5;exitY=0;exitDx=0;exitDy=0;entryX=0.5;entryY=1;entryDx=0;entryDy=0;" edge="1" parent="1" target="TmSngxb7w34U3onUQ0GS-352">
          <mxGeometry x="0.0075" width="50" height="50" relative="1" as="geometry">
            <mxPoint x="2510.44" y="1723" as="sourcePoint" />
            <mxPoint x="2603.44" y="1518" as="targetPoint" />
            <mxPoint as="offset" />
          </mxGeometry>
        </mxCell>
        <mxCell id="TmSngxb7w34U3onUQ0GS-357" value="}" style="endArrow=classic;html=1;rounded=0;exitX=0.5;exitY=0;exitDx=0;exitDy=0;entryX=0.5;entryY=1;entryDx=0;entryDy=0;" edge="1" parent="1" target="TmSngxb7w34U3onUQ0GS-353">
          <mxGeometry x="0.0075" width="50" height="50" relative="1" as="geometry">
            <mxPoint x="2510.44" y="1723" as="sourcePoint" />
            <mxPoint x="2700.44" y="1518" as="targetPoint" />
            <mxPoint as="offset" />
          </mxGeometry>
        </mxCell>
        <mxCell id="TmSngxb7w34U3onUQ0GS-371" style="edgeStyle=orthogonalEdgeStyle;rounded=0;orthogonalLoop=1;jettySize=auto;html=1;" edge="1" parent="1" source="TmSngxb7w34U3onUQ0GS-358" target="TmSngxb7w34U3onUQ0GS-359">
          <mxGeometry relative="1" as="geometry" />
        </mxCell>
        <mxCell id="TmSngxb7w34U3onUQ0GS-358" value="Program Node" style="rounded=0;whiteSpace=wrap;html=1;" vertex="1" parent="1">
          <mxGeometry x="2870" y="435" width="120" height="60" as="geometry" />
        </mxCell>
        <mxCell id="TmSngxb7w34U3onUQ0GS-359" value="Block Node" style="rounded=0;whiteSpace=wrap;html=1;" vertex="1" parent="1">
          <mxGeometry x="2870" y="540" width="120" height="60" as="geometry" />
        </mxCell>
        <mxCell id="TmSngxb7w34U3onUQ0GS-360" value="Variable Declaration Node" style="rounded=0;whiteSpace=wrap;html=1;" vertex="1" parent="1">
          <mxGeometry x="2680" y="670" width="120" height="60" as="geometry" />
        </mxCell>
        <mxCell id="TmSngxb7w34U3onUQ0GS-361" value="Identifier Node" style="rounded=0;whiteSpace=wrap;html=1;" vertex="1" parent="1">
          <mxGeometry x="2580" y="780" width="120" height="60" as="geometry" />
        </mxCell>
        <mxCell id="TmSngxb7w34U3onUQ0GS-362" value="Integer Literal Node" style="rounded=0;whiteSpace=wrap;html=1;" vertex="1" parent="1">
          <mxGeometry x="2770" y="780" width="120" height="60" as="geometry" />
        </mxCell>
        <mxCell id="TmSngxb7w34U3onUQ0GS-364" value="Assignment Node" style="rounded=0;whiteSpace=wrap;html=1;" vertex="1" parent="1">
          <mxGeometry x="3060" y="670" width="120" height="60" as="geometry" />
        </mxCell>
        <mxCell id="TmSngxb7w34U3onUQ0GS-366" value="Identifier Node" style="rounded=0;whiteSpace=wrap;html=1;" vertex="1" parent="1">
          <mxGeometry x="2950" y="780" width="120" height="60" as="geometry" />
        </mxCell>
        <mxCell id="TmSngxb7w34U3onUQ0GS-367" value="Addition Node" style="rounded=0;whiteSpace=wrap;html=1;" vertex="1" parent="1">
          <mxGeometry x="3160" y="780" width="120" height="60" as="geometry" />
        </mxCell>
        <mxCell id="TmSngxb7w34U3onUQ0GS-369" value="Identifier Node" style="rounded=0;whiteSpace=wrap;html=1;" vertex="1" parent="1">
          <mxGeometry x="3060" y="880" width="120" height="60" as="geometry" />
        </mxCell>
        <mxCell id="TmSngxb7w34U3onUQ0GS-370" value="Integer Literal Node" style="rounded=0;whiteSpace=wrap;html=1;" vertex="1" parent="1">
          <mxGeometry x="3260" y="880" width="120" height="60" as="geometry" />
        </mxCell>
        <mxCell id="TmSngxb7w34U3onUQ0GS-373" value="" style="endArrow=classic;html=1;rounded=0;entryX=0.5;entryY=0;entryDx=0;entryDy=0;exitX=0.5;exitY=1;exitDx=0;exitDy=0;" edge="1" parent="1" source="TmSngxb7w34U3onUQ0GS-359" target="TmSngxb7w34U3onUQ0GS-360">
          <mxGeometry width="50" height="50" relative="1" as="geometry">
            <mxPoint x="3020" y="720" as="sourcePoint" />
            <mxPoint x="3070" y="670" as="targetPoint" />
          </mxGeometry>
        </mxCell>
        <mxCell id="TmSngxb7w34U3onUQ0GS-374" value="" style="endArrow=classic;html=1;rounded=0;entryX=0.5;entryY=0;entryDx=0;entryDy=0;exitX=0.5;exitY=1;exitDx=0;exitDy=0;" edge="1" parent="1" source="TmSngxb7w34U3onUQ0GS-359" target="TmSngxb7w34U3onUQ0GS-364">
          <mxGeometry width="50" height="50" relative="1" as="geometry">
            <mxPoint x="2940" y="625" as="sourcePoint" />
            <mxPoint x="2750" y="680" as="targetPoint" />
          </mxGeometry>
        </mxCell>
        <mxCell id="TmSngxb7w34U3onUQ0GS-375" value="" style="endArrow=classic;html=1;rounded=0;entryX=0.5;entryY=0;entryDx=0;entryDy=0;exitX=0.5;exitY=1;exitDx=0;exitDy=0;" edge="1" parent="1" source="TmSngxb7w34U3onUQ0GS-364" target="TmSngxb7w34U3onUQ0GS-366">
          <mxGeometry width="50" height="50" relative="1" as="geometry">
            <mxPoint x="2940" y="625" as="sourcePoint" />
            <mxPoint x="3080" y="680" as="targetPoint" />
          </mxGeometry>
        </mxCell>
        <mxCell id="TmSngxb7w34U3onUQ0GS-376" value="" style="endArrow=classic;html=1;rounded=0;entryX=0.5;entryY=0;entryDx=0;entryDy=0;exitX=0.5;exitY=1;exitDx=0;exitDy=0;" edge="1" parent="1" source="TmSngxb7w34U3onUQ0GS-364" target="TmSngxb7w34U3onUQ0GS-367">
          <mxGeometry width="50" height="50" relative="1" as="geometry">
            <mxPoint x="3080" y="740" as="sourcePoint" />
            <mxPoint x="3020" y="790" as="targetPoint" />
          </mxGeometry>
        </mxCell>
        <mxCell id="TmSngxb7w34U3onUQ0GS-377" value="" style="endArrow=classic;html=1;rounded=0;entryX=0.5;entryY=0;entryDx=0;entryDy=0;exitX=0.5;exitY=1;exitDx=0;exitDy=0;" edge="1" parent="1" source="TmSngxb7w34U3onUQ0GS-367" target="TmSngxb7w34U3onUQ0GS-369">
          <mxGeometry width="50" height="50" relative="1" as="geometry">
            <mxPoint x="3080" y="740" as="sourcePoint" />
            <mxPoint x="3230" y="790" as="targetPoint" />
          </mxGeometry>
        </mxCell>
        <mxCell id="TmSngxb7w34U3onUQ0GS-378" value="" style="endArrow=classic;html=1;rounded=0;entryX=0.5;entryY=0;entryDx=0;entryDy=0;exitX=0.5;exitY=1;exitDx=0;exitDy=0;" edge="1" parent="1" source="TmSngxb7w34U3onUQ0GS-367" target="TmSngxb7w34U3onUQ0GS-370">
          <mxGeometry width="50" height="50" relative="1" as="geometry">
            <mxPoint x="3230" y="850" as="sourcePoint" />
            <mxPoint x="3130" y="890" as="targetPoint" />
          </mxGeometry>
        </mxCell>
        <mxCell id="TmSngxb7w34U3onUQ0GS-379" value="" style="endArrow=classic;html=1;rounded=0;entryX=0.5;entryY=0;entryDx=0;entryDy=0;exitX=0.5;exitY=1;exitDx=0;exitDy=0;" edge="1" parent="1" source="TmSngxb7w34U3onUQ0GS-360" target="TmSngxb7w34U3onUQ0GS-362">
          <mxGeometry width="50" height="50" relative="1" as="geometry">
            <mxPoint x="3230" y="850" as="sourcePoint" />
            <mxPoint x="3350" y="890" as="targetPoint" />
          </mxGeometry>
        </mxCell>
        <mxCell id="TmSngxb7w34U3onUQ0GS-380" value="" style="endArrow=classic;html=1;rounded=0;entryX=0.5;entryY=0;entryDx=0;entryDy=0;exitX=0.5;exitY=1;exitDx=0;exitDy=0;" edge="1" parent="1" source="TmSngxb7w34U3onUQ0GS-360" target="TmSngxb7w34U3onUQ0GS-361">
          <mxGeometry width="50" height="50" relative="1" as="geometry">
            <mxPoint x="2740" y="730" as="sourcePoint" />
            <mxPoint x="2850" y="790" as="targetPoint" />
          </mxGeometry>
        </mxCell>
      </root>
    </mxGraphModel>
  </diagram>
</mxfile>
